<svg width="117" height="149" viewBox="0 0 117 149" fill="none" xmlns="http://www.w3.org/2000/svg">
<path d="M3.08594 138V109.445H10.8008V131.77H21.7969V138H3.08594ZM53.0859 123.684C53.0859 125.884 52.819 127.889 52.2852 129.699C51.7643 131.496 50.944 133.046 49.8242 134.348C48.7044 135.65 47.2656 136.652 45.5078 137.355C43.75 138.046 41.6471 138.391 39.1992 138.391C36.8034 138.391 34.7266 138.046 32.9688 137.355C31.224 136.652 29.7852 135.656 28.6523 134.367C27.5195 133.065 26.6797 131.509 26.1328 129.699C25.5859 127.889 25.3125 125.871 25.3125 123.645C25.3125 120.676 25.8008 118.098 26.7773 115.91C27.7669 113.71 29.2904 112.01 31.3477 110.812C33.4049 109.602 36.0352 108.996 39.2383 108.996C42.4935 108.996 45.1367 109.602 47.168 110.812C49.2122 112.023 50.7096 113.729 51.6602 115.93C52.6107 118.13 53.0859 120.715 53.0859 123.684ZM33.4375 123.684C33.4375 125.402 33.6328 126.88 34.0234 128.117C34.4141 129.354 35.0326 130.305 35.8789 130.969C36.7253 131.633 37.832 131.965 39.1992 131.965C40.6185 131.965 41.7448 131.633 42.5781 130.969C43.4245 130.305 44.0299 129.354 44.3945 128.117C44.7721 126.88 44.9609 125.402 44.9609 123.684C44.9609 121.105 44.5312 119.068 43.6719 117.57C42.8125 116.073 41.3346 115.324 39.2383 115.324C37.8451 115.324 36.7188 115.663 35.8594 116.34C35.013 117.017 34.3945 117.98 34.0039 119.23C33.6263 120.48 33.4375 121.965 33.4375 123.684ZM69.707 121.281H82.0312V136.672C80.5599 137.18 78.8737 137.596 76.9727 137.922C75.0716 138.234 73.0794 138.391 70.9961 138.391C68.2487 138.391 65.8398 137.857 63.7695 136.789C61.6992 135.721 60.0846 134.1 58.9258 131.926C57.7669 129.738 57.1875 126.978 57.1875 123.645C57.1875 120.65 57.7604 118.065 58.9062 115.891C60.0521 113.703 61.7383 112.017 63.9648 110.832C66.2044 109.634 68.9453 109.035 72.1875 109.035C73.9714 109.035 75.6641 109.204 77.2656 109.543C78.8672 109.882 80.2604 110.311 81.4453 110.832L79.0039 116.887C77.9753 116.379 76.9076 116.001 75.8008 115.754C74.694 115.493 73.5026 115.363 72.2266 115.363C70.5208 115.363 69.1471 115.747 68.1055 116.516C67.0768 117.284 66.3281 118.312 65.8594 119.602C65.3906 120.878 65.1562 122.29 65.1562 123.84C65.1562 125.611 65.4036 127.108 65.8984 128.332C66.4062 129.543 67.1419 130.467 68.1055 131.105C69.082 131.73 70.2604 132.043 71.6406 132.043C72.0964 132.043 72.6497 132.01 73.3008 131.945C73.9648 131.88 74.4661 131.802 74.8047 131.711V127.238H69.707V121.281ZM114.57 123.684C114.57 125.884 114.303 127.889 113.77 129.699C113.249 131.496 112.428 133.046 111.309 134.348C110.189 135.65 108.75 136.652 106.992 137.355C105.234 138.046 103.132 138.391 100.684 138.391C98.2878 138.391 96.2109 138.046 94.4531 137.355C92.7083 136.652 91.2695 135.656 90.1367 134.367C89.0039 133.065 88.1641 131.509 87.6172 129.699C87.0703 127.889 86.7969 125.871 86.7969 123.645C86.7969 120.676 87.2852 118.098 88.2617 115.91C89.2513 113.71 90.7747 112.01 92.832 110.812C94.8893 109.602 97.5195 108.996 100.723 108.996C103.978 108.996 106.621 109.602 108.652 110.812C110.697 112.023 112.194 113.729 113.145 115.93C114.095 118.13 114.57 120.715 114.57 123.684ZM94.9219 123.684C94.9219 125.402 95.1172 126.88 95.5078 128.117C95.8984 129.354 96.5169 130.305 97.3633 130.969C98.2096 131.633 99.3164 131.965 100.684 131.965C102.103 131.965 103.229 131.633 104.062 130.969C104.909 130.305 105.514 129.354 105.879 128.117C106.257 126.88 106.445 125.402 106.445 123.684C106.445 121.105 106.016 119.068 105.156 117.57C104.297 116.073 102.819 115.324 100.723 115.324C99.3294 115.324 98.2031 115.663 97.3438 116.34C96.4974 117.017 95.8789 117.98 95.4883 119.23C95.1107 120.48 94.9219 121.965 94.9219 123.684Z" fill="black"/>
<path d="M15 44.1514L23.0275 36.1239L35.0688 48.1651L46.3073 36.9266L52.7294 43.3486L33.4633 62.6147L15 44.1514Z" fill="url(#paint0_linear_8_22)"/>
<path d="M39.0825 67.4312L47.11 75.4587L54.3348 68.2339L46.3073 60.2064L39.0825 67.4312Z" fill="url(#paint1_linear_8_22)"/>
<path d="M77.6147 68.2339L58.3487 48.9679L51.1239 56.1927L63.1652 68.2339L51.1239 80.2752L58.3487 87.5L77.6147 68.2339Z" fill="url(#paint2_linear_8_22)"/>
<path d="M42.2936 32.1101L34.266 24.0826L27.0413 31.3073L35.0688 39.3349L42.2936 32.1101Z" fill="url(#paint3_linear_8_22)"/>
<path d="M58.3486 38.5321L39.0825 19.2661L58.3486 0L66.3761 8.02752L54.3348 20.0688L65.5734 31.3073L58.3486 38.5321Z" fill="url(#paint4_linear_8_22)"/>
<path d="M78.4175 19.2661L71.1927 12.0413L63.1652 20.0688L70.3899 27.2936L78.4175 19.2661Z" fill="url(#paint5_linear_8_22)"/>
<path d="M102.5 43.3486L83.2339 24.0826L63.9679 43.3486L71.9954 51.3761L84.0367 39.3349L95.2752 50.5734L102.5 43.3486Z" fill="url(#paint6_linear_8_22)"/>
<path d="M90.4587 55.3899L83.2339 48.1651L75.2064 56.1927L82.4312 63.4174L90.4587 55.3899Z" fill="url(#paint7_linear_8_22)"/>
<defs>
<linearGradient id="paint0_linear_8_22" x1="33.8647" y1="36.1239" x2="33.8647" y2="62.6147" gradientUnits="userSpaceOnUse">
<stop offset="0.0104167" stop-color="#F9BB1D"/>
<stop offset="1" stop-color="#F9551A"/>
</linearGradient>
<linearGradient id="paint1_linear_8_22" x1="46.7087" y1="60.2064" x2="46.7087" y2="75.4587" gradientUnits="userSpaceOnUse">
<stop offset="0.0104167" stop-color="#F9BB1D"/>
<stop offset="1" stop-color="#F9551A"/>
</linearGradient>
<linearGradient id="paint2_linear_8_22" x1="64.3693" y1="48.9679" x2="64.3693" y2="87.5" gradientUnits="userSpaceOnUse">
<stop offset="0.0104167" stop-color="#F9BB1D"/>
<stop offset="1" stop-color="#F9551A"/>
</linearGradient>
<linearGradient id="paint3_linear_8_22" x1="46.7087" y1="0" x2="46.7087" y2="39.3349" gradientUnits="userSpaceOnUse">
<stop offset="0.0104167" stop-color="#F9BB1D"/>
<stop offset="1" stop-color="#F9551A"/>
</linearGradient>
<linearGradient id="paint4_linear_8_22" x1="46.7087" y1="0" x2="46.7087" y2="39.3349" gradientUnits="userSpaceOnUse">
<stop offset="0.0104167" stop-color="#F9BB1D"/>
<stop offset="1" stop-color="#F9551A"/>
</linearGradient>
<linearGradient id="paint5_linear_8_22" x1="70.7913" y1="12.0413" x2="70.7913" y2="27.2936" gradientUnits="userSpaceOnUse">
<stop offset="0.0104167" stop-color="#F9BB1D"/>
<stop offset="1" stop-color="#F9551A"/>
</linearGradient>
<linearGradient id="paint6_linear_8_22" x1="83.2339" y1="24.0826" x2="83.2339" y2="51.3761" gradientUnits="userSpaceOnUse">
<stop offset="0.0104167" stop-color="#F9BB1D"/>
<stop offset="1" stop-color="#F9551A"/>
</linearGradient>
<linearGradient id="paint7_linear_8_22" x1="82.8326" y1="48.1651" x2="82.8326" y2="63.4174" gradientUnits="userSpaceOnUse">
<stop offset="0.0104167" stop-color="#F9BB1D"/>
<stop offset="1" stop-color="#F9551A"/>
</linearGradient>
</defs>
</svg>
